<svg width="54" height="55" viewBox="0 0 54 55" fill="none" xmlns="http://www.w3.org/2000/svg">
<path d="M26.9998 18.648C22.1256 18.648 18.1479 22.6258 18.1479 27.5C18.1479 32.3742 22.1256 36.3519 26.9998 36.3519C31.874 36.3519 35.8518 32.3742 35.8518 27.5C35.8518 22.6258 31.874 18.648 26.9998 18.648ZM53.549 27.5C53.549 23.8344 53.5822 20.202 53.3764 16.543C53.1705 12.293 52.201 8.52109 49.0932 5.41328C45.9787 2.29883 42.2135 1.33594 37.9635 1.13008C34.2979 0.924216 30.6654 0.95742 27.0065 0.95742C23.3408 0.95742 19.7084 0.924216 16.0494 1.13008C11.7994 1.33594 8.02756 2.30547 4.91975 5.41328C1.8053 8.52773 0.842405 12.293 0.636545 16.543C0.430686 20.2086 0.463889 23.841 0.463889 27.5C0.463889 31.159 0.430686 34.798 0.636545 38.457C0.842405 42.707 1.81194 46.4789 4.91975 49.5867C8.0342 52.7012 11.7994 53.6641 16.0494 53.8699C19.7151 54.0758 23.3475 54.0426 27.0065 54.0426C30.6721 54.0426 34.3045 54.0758 37.9635 53.8699C42.2135 53.6641 45.9854 52.6945 49.0932 49.5867C52.2076 46.4723 53.1705 42.707 53.3764 38.457C53.5889 34.798 53.549 31.1656 53.549 27.5ZM26.9998 41.1199C19.4627 41.1199 13.3799 35.0371 13.3799 27.5C13.3799 19.9629 19.4627 13.8801 26.9998 13.8801C34.5369 13.8801 40.6197 19.9629 40.6197 27.5C40.6197 35.0371 34.5369 41.1199 26.9998 41.1199ZM41.1776 16.5031C39.4178 16.5031 37.9967 15.082 37.9967 13.3223C37.9967 11.5625 39.4178 10.1414 41.1776 10.1414C42.9373 10.1414 44.3584 11.5625 44.3584 13.3223C44.3589 13.7401 44.277 14.154 44.1174 14.5401C43.9577 14.9263 43.7234 15.2772 43.4279 15.5726C43.1325 15.8681 42.7816 16.1024 42.3954 16.2621C42.0093 16.4217 41.5954 16.5036 41.1776 16.5031Z" fill="#E9E9E9"/>
</svg>
