<svg width="58" height="57" viewBox="0 0 58 57" fill="none" xmlns="http://www.w3.org/2000/svg">
<path fill-rule="evenodd" clip-rule="evenodd" d="M21.7153 19.9121H32.2383V25.1538C33.7542 22.1391 37.6415 19.4305 43.481 19.4305C54.6755 19.4305 57.3332 25.4315 57.3332 36.4418V56.8333H45.9998V38.9493C45.9998 32.6791 44.484 29.1431 40.625 29.1431C35.2728 29.1431 33.0487 32.954 33.0487 38.9465V56.8333H21.7153V19.9121ZM2.2815 56.3516H13.6148V19.4305H2.2815V56.3516ZM15.2383 7.39163C15.2388 8.34157 15.0504 9.28213 14.6841 10.1586C14.3178 11.0351 13.781 11.8301 13.1048 12.4973C11.7346 13.8591 9.87997 14.6213 7.94817 14.6166C6.01977 14.6153 4.16938 13.855 2.79717 12.5001C2.12344 11.8306 1.58843 11.0348 1.22281 10.1582C0.857191 9.28157 0.668145 8.34143 0.666504 7.39163C0.666504 5.47346 1.4315 3.63746 2.8 2.28313C4.17101 0.926408 6.02218 0.165778 7.951 0.166627C9.88334 0.166627 11.7363 0.928793 13.1048 2.28313C14.4705 3.63746 15.2383 5.47346 15.2383 7.39163Z" fill="#E9E9E9"/>
</svg>
