<svg width="69" height="69" viewBox="0 0 69 69" fill="none" xmlns="http://www.w3.org/2000/svg">
<g clip-path="url(#clip0_1_3137)">
<path d="M67.5623 18.9366C67.1716 17.563 66.4106 16.3195 65.3601 15.3382C64.2799 14.3267 62.956 13.6032 61.5133 13.2359C56.1141 11.8334 34.4826 11.8334 34.4826 11.8334C25.4646 11.7323 16.4489 12.177 7.48632 13.1651C6.04362 13.5595 4.72219 14.2992 3.63957 15.3184C2.57582 16.3271 1.80532 17.5709 1.40282 18.9337C0.435939 24.067 -0.0338392 29.2792 -0.000178723 34.5001C-0.0346787 39.7162 0.433946 44.9267 1.40282 50.0664C1.7967 51.4235 2.56432 52.6617 3.63095 53.6619C4.69757 54.6621 6.02582 55.3846 7.48632 55.7671C12.9574 57.1667 34.4826 57.1667 34.4826 57.1667C43.512 57.268 52.5392 56.8232 61.5133 55.8351C62.956 55.4678 64.2799 54.7442 65.3601 53.7327C66.4102 52.7516 67.1704 51.5079 67.5594 50.1344C68.5516 45.0031 69.034 39.7887 68.9998 34.5652C69.0744 29.3196 68.5927 24.0807 67.5623 18.9337V18.9366ZM27.6056 44.2014V24.8016L45.6031 34.5029L27.6056 44.2014Z" fill="#E9E9E9"/>
</g>
<defs>
<clipPath id="clip0_1_3137">
<rect width="69" height="68" fill="white" transform="translate(0 0.5)"/>
</clipPath>
</defs>
</svg>
